<?xml version="1.0" encoding="utf-8" standalone="no"?>
<!DOCTYPE svg PUBLIC "-//W3C//DTD SVG 1.1//EN"
  "http://www.w3.org/Graphics/SVG/1.1/DTD/svg11.dtd">
<svg xmlns:xlink="http://www.w3.org/1999/xlink" width="576pt" height="288pt" viewBox="0 0 576 288" xmlns="http://www.w3.org/2000/svg" version="1.1">
 <metadata>
  <rdf:RDF xmlns:dc="http://purl.org/dc/elements/1.1/" xmlns:cc="http://creativecommons.org/ns#" xmlns:rdf="http://www.w3.org/1999/02/22-rdf-syntax-ns#">
   <cc:Work>
    <dc:type rdf:resource="http://purl.org/dc/dcmitype/StillImage"/>
    <dc:date>2025-10-06T19:03:17.784007</dc:date>
    <dc:format>image/svg+xml</dc:format>
    <dc:creator>
     <cc:Agent>
      <dc:title>Matplotlib v3.8.2, https://matplotlib.org/</dc:title>
     </cc:Agent>
    </dc:creator>
   </cc:Work>
  </rdf:RDF>
 </metadata>
 <defs>
  <style type="text/css">*{stroke-linejoin: round; stroke-linecap: butt}</style>
 </defs>
 <g id="figure_1">
  <g id="patch_1">
   <path d="M 0 288 
L 576 288 
L 576 0 
L 0 0 
z
" style="fill: #ffffff"/>
  </g>
  <g id="axes_1">
   <g id="patch_2">
    <path d="M 10.8 262.156136 
L 282.6 262.156136 
L 282.6 52.128864 
L 10.8 52.128864 
z
" style="fill: #ffffff"/>
   </g>
   <g id="line2d_1">
    <path d="M 270.245455 249.801591 
L 23.154545 249.801591 
L 23.154545 64.483409 
L 270.245455 64.483409 
L 270.245455 289 
M 23.154545 289 
L 23.154545 249.801591 
" clip-path="url(#pdf553d734b)" style="fill: none; stroke: #b0b0b0; stroke-width: 2; stroke-linecap: square"/>
   </g>
   <g id="line2d_2">
    <path d="M 214.65 64.483409 
L 214.65 120.078864 
L 78.75 120.078864 
L 78.75 64.483409 
" clip-path="url(#pdf553d734b)" style="fill: none; stroke: #b0b0b0; stroke-width: 2; stroke-linecap: square"/>
   </g>
   <g id="line2d_3">
    <path clip-path="url(#pdf553d734b)" style="fill: none; stroke: #b0b0b0; stroke-width: 2; stroke-linecap: square"/>
   </g>
   <g id="line2d_4">
    <path d="M 177.586364 64.483409 
L 177.586364 83.015227 
L 115.813636 83.015227 
L 115.813636 64.483409 
" clip-path="url(#pdf553d734b)" style="fill: none; stroke: #b0b0b0; stroke-width: 2; stroke-linecap: square"/>
   </g>
   <g id="line2d_5">
    <path clip-path="url(#pdf553d734b)" style="fill: none; stroke: #b0b0b0; stroke-width: 2; stroke-linecap: square"/>
   </g>
   <g id="patch_3">
    <path d="M 146.7 280.687955 
C 154.891159 280.687955 162.747933 277.433572 168.539957 271.641548 
C 174.331982 265.849524 177.586364 257.99275 177.586364 249.801591 
C 177.586364 241.610432 174.331982 233.753658 168.539957 227.961634 
C 162.747933 222.169609 154.891159 218.915227 146.7 218.915227 
C 138.508841 218.915227 130.652067 222.169609 124.860043 227.961634 
C 119.068018 233.753658 115.813636 241.610432 115.813636 249.801591 
C 115.813636 257.99275 119.068018 265.849524 124.860043 271.641548 
C 130.652067 277.433572 138.508841 280.687955 146.7 280.687955 
L 146.7 280.687955 
z
" clip-path="url(#pdf553d734b)" style="fill: none; stroke: #b0b0b0; stroke-width: 2; stroke-linejoin: miter"/>
   </g>
   <g id="patch_4">
    <path d="M 171.383158 379.489792 
C 168.50534 375.663855 164.777004 372.558901 160.493487 370.420884 
C 156.209971 368.282867 151.487445 367.169773 146.7 367.169773 
C 141.912555 367.169773 137.190029 368.282867 132.906513 370.420884 
C 128.622996 372.558901 124.89466 375.663855 122.016842 379.489792 
" clip-path="url(#pdf553d734b)" style="fill: none; stroke: #b0b0b0; stroke-width: 2; stroke-linejoin: miter"/>
   </g>
   <g id="patch_5">
    <path d="M 122.016842 120.11339 
C 124.89466 123.939327 128.622996 127.044281 132.906513 129.182298 
C 137.190029 131.320314 141.912555 132.433409 146.7 132.433409 
C 151.487445 132.433409 156.209971 131.320314 160.493487 129.182298 
C 164.777004 127.044281 168.50534 123.939327 171.383158 120.11339 
" clip-path="url(#pdf553d734b)" style="fill: none; stroke: #b0b0b0; stroke-width: 2; stroke-linejoin: miter"/>
   </g>
   <g id="patch_6">
    <path d="M 26.530425 435.119773 
C 26.530425 434.224777 26.17451 433.365523 25.541653 432.732665 
C 24.908795 432.099808 24.049541 431.743893 23.154545 431.743893 
" clip-path="url(#pdf553d734b)" style="fill: none; stroke: #b0b0b0; stroke-width: 2; stroke-linejoin: miter"/>
   </g>
   <g id="patch_7">
    <path d="M 23.154545 67.859289 
C 24.049541 67.859289 24.908795 67.503374 25.541653 66.870516 
C 26.17451 66.237659 26.530425 65.378405 26.530425 64.483409 
" clip-path="url(#pdf553d734b)" style="fill: none; stroke: #b0b0b0; stroke-width: 2; stroke-linejoin: miter"/>
   </g>
   <g id="patch_8">
    <path d="M 266.869575 64.483409 
C 266.869575 65.378405 267.22549 66.237659 267.858347 66.870516 
C 268.491205 67.503374 269.350459 67.859289 270.245455 67.859289 
" clip-path="url(#pdf553d734b)" style="fill: none; stroke: #b0b0b0; stroke-width: 2; stroke-linejoin: miter"/>
   </g>
   <g id="patch_9">
    <path d="M 270.245455 431.743893 
C 269.350459 431.743893 268.491205 432.099808 267.858347 432.732665 
C 267.22549 433.365523 266.869575 434.224777 266.869575 435.119773 
" clip-path="url(#pdf553d734b)" style="fill: none; stroke: #b0b0b0; stroke-width: 2; stroke-linejoin: miter"/>
   </g>
   <g id="patch_10">
    <path d="M 146.7 250.542864 
C 146.896588 250.542864 147.08515 250.464758 147.224159 250.32575 
C 147.363168 250.186741 147.441273 249.998179 147.441273 249.801591 
C 147.441273 249.605003 147.363168 249.416441 147.224159 249.277432 
C 147.08515 249.138423 146.896588 249.060318 146.7 249.060318 
C 146.503412 249.060318 146.31485 249.138423 146.175841 249.277432 
C 146.036832 249.416441 145.958727 249.605003 145.958727 249.801591 
C 145.958727 249.998179 146.036832 250.186741 146.175841 250.32575 
C 146.31485 250.464758 146.503412 250.542864 146.7 250.542864 
z
" clip-path="url(#pdf553d734b)" style="fill: #b0b0b0; stroke: #b0b0b0; stroke-linejoin: miter"/>
   </g>
   <g id="patch_11">
    <path d="M 146.7 398.797409 
C 146.896588 398.797409 147.08515 398.719304 147.224159 398.580295 
C 147.363168 398.441287 147.441273 398.252724 147.441273 398.056136 
C 147.441273 397.859549 147.363168 397.670986 147.224159 397.531977 
C 147.08515 397.392969 146.896588 397.314864 146.7 397.314864 
C 146.503412 397.314864 146.31485 397.392969 146.175841 397.531977 
C 146.036832 397.670986 145.958727 397.859549 145.958727 398.056136 
C 145.958727 398.252724 146.036832 398.441287 146.175841 398.580295 
C 146.31485 398.719304 146.503412 398.797409 146.7 398.797409 
z
" clip-path="url(#pdf553d734b)" style="fill: #b0b0b0; stroke: #b0b0b0; stroke-linejoin: miter"/>
   </g>
   <g id="patch_12">
    <path d="M 146.7 102.288318 
C 146.896588 102.288318 147.08515 102.210213 147.224159 102.071204 
C 147.363168 101.932196 147.441273 101.743633 147.441273 101.547045 
C 147.441273 101.350458 147.363168 101.161895 147.224159 101.022886 
C 147.08515 100.883878 146.896588 100.805773 146.7 100.805773 
C 146.503412 100.805773 146.31485 100.883878 146.175841 101.022886 
C 146.036832 101.161895 145.958727 101.350458 145.958727 101.547045 
C 145.958727 101.743633 146.036832 101.932196 146.175841 102.071204 
C 146.31485 102.210213 146.503412 102.288318 146.7 102.288318 
z
" clip-path="url(#pdf553d734b)" style="fill: #b0b0b0; stroke: #b0b0b0; stroke-linejoin: miter"/>
   </g>
   <g id="line2d_6">
    <path d="M 134.345455 64.483409 
L 159.054545 64.483409 
" clip-path="url(#pdf553d734b)" style="fill: none; stroke: #b0b0b0; stroke-width: 4; stroke-linecap: square"/>
   </g>
   <g id="line2d_7">
    <path clip-path="url(#pdf553d734b)" style="fill: none; stroke: #b0b0b0; stroke-width: 4; stroke-linecap: square"/>
   </g>
   <g id="matplotlib.axis_1">
    <g id="xtick_1"/>
    <g id="xtick_2"/>
    <g id="xtick_3"/>
    <g id="xtick_4"/>
    <g id="xtick_5"/>
    <g id="xtick_6"/>
    <g id="xtick_7"/>
    <g id="xtick_8"/>
    <g id="xtick_9"/>
   </g>
   <g id="matplotlib.axis_2">
    <g id="ytick_1"/>
    <g id="ytick_2"/>
    <g id="ytick_3"/>
    <g id="ytick_4"/>
    <g id="ytick_5"/>
    <g id="ytick_6"/>
    <g id="ytick_7"/>
   </g>
   <g id="Quiver_1">
    <path d="M 41.985093 89.678023 
L 124.409551 88.564179 
L 125.868877 85.544184 
L 133.418864 89.1925 
L 125.970219 93.0435 
L 124.42982 90.064042 
L 42.005361 91.177886 
L 41.985093 89.678023 
" clip-path="url(#pdf553d734b)" style="fill: #ff0000; fill-opacity: 0.5"/>
    <path d="M 47.895993 89.987516 
L 174.804372 95.467651 
L 176.4324 92.535157 
L 183.763636 96.605227 
L 176.108838 100.028174 
L 174.739659 96.966254 
L 47.83128 91.48612 
L 47.895993 89.987516 
" clip-path="url(#pdf553d734b)" style="fill: #ff0000; fill-opacity: 0.5"/>
    <path d="M 81.939101 181.43999 
L 148.038521 162.320323 
L 148.645855 159.021665 
L 156.8925 160.54 
L 150.729845 166.226315 
L 148.455319 163.761253 
L 82.355899 182.88092 
L 81.939101 181.43999 
" clip-path="url(#pdf553d734b)" style="fill: #ff0000; fill-opacity: 0.5"/>
    <path d="M 40.786989 83.192312 
L 142.366099 86.880939 
L 143.973978 83.937348 
L 151.332955 87.957045 
L 143.701811 91.432408 
L 142.311666 88.379951 
L 40.732556 84.691324 
L 40.786989 83.192312 
" clip-path="url(#pdf553d734b)" style="fill: #ff0000; fill-opacity: 0.5"/>
    <path d="M 81.306615 155.378412 
L 123.145745 113.271082 
L 122.074925 110.092506 
L 130.021364 107.415455 
L 127.395142 115.378837 
L 124.209789 114.328348 
L 82.370658 156.435678 
L 81.306615 155.378412 
" clip-path="url(#pdf553d734b)" style="fill: #ff0000; fill-opacity: 0.5"/>
    <path d="M 76.794574 68.262728 
L 127.705943 116.436926 
L 130.857422 115.288804 
L 133.727727 123.1675 
L 125.702587 120.736527 
L 126.674977 117.526471 
L 75.763607 69.352272 
L 76.794574 68.262728 
" clip-path="url(#pdf553d734b)" style="fill: #ff0000; fill-opacity: 0.5"/>
    <path d="M 64.00205 79.48947 
L 150.180235 88.443048 
L 151.982224 85.614119 
L 159.054545 90.119091 
L 151.207175 93.073965 
L 150.025226 89.935017 
L 63.847041 80.981439 
L 64.00205 79.48947 
" clip-path="url(#pdf553d734b)" style="fill: #ff0000; fill-opacity: 0.5"/>
    <path d="M 69.019454 71.470791 
L 132.791897 84.768023 
L 134.872677 82.137367 
L 141.449318 87.339318 
L 133.341773 89.47946 
L 132.485716 86.236442 
L 68.713273 72.939209 
L 69.019454 71.470791 
" clip-path="url(#pdf553d734b)" style="fill: #ff0000; fill-opacity: 0.5"/>
    <path d="M 97.290723 106.419186 
L 140.004369 87.780505 
L 140.179345 84.43097 
L 148.553182 84.868409 
L 143.178928 91.305015 
L 140.604286 89.155314 
L 97.89064 107.793995 
L 97.290723 106.419186 
" clip-path="url(#pdf553d734b)" style="fill: #ff0000; fill-opacity: 0.5"/>
    <path d="M 70.874053 63.749497 
L 138.356423 77.956312 
L 140.44228 75.329678 
L 147.008864 80.544318 
L 138.897201 82.668801 
L 138.047408 79.424136 
L 70.565038 65.217321 
L 70.874053 63.749497 
" clip-path="url(#pdf553d734b)" style="fill: #ff0000; fill-opacity: 0.5"/>
    <path d="M 58.673864 109.754091 
L 97.547727 109.754091 
L 99.047727 106.754091 
L 106.547727 110.504091 
L 99.047727 114.254091 
L 97.547727 111.254091 
L 58.673864 111.254091 
L 58.673864 109.754091 
" clip-path="url(#pdf553d734b)" style="fill: #ff0000; fill-opacity: 0.5"/>
    <path d="M 86.259007 90.32644 
L 140.327429 74.345626 
L 140.915577 71.043493 
L 149.170909 72.513864 
L 143.041413 78.235907 
L 140.752596 75.784109 
L 86.684175 91.764923 
L 86.259007 90.32644 
" clip-path="url(#pdf553d734b)" style="fill: #ff0000; fill-opacity: 0.5"/>
    <path d="M 130.210564 140.77052 
L 113.196578 128.925339 
L 110.251431 130.530366 
L 106.238864 123.1675 
L 114.536697 124.375166 
L 114.053631 127.694299 
L 131.067618 139.53948 
L 130.210564 140.77052 
" clip-path="url(#pdf553d734b)" style="fill: #ff0000; fill-opacity: 0.5"/>
    <path d="M 62.794298 108.546816 
L 140.614277 86.590465 
L 141.243291 83.295873 
L 149.479773 84.868409 
L 143.279855 90.514073 
L 141.021589 88.034105 
L 63.201611 109.990456 
L 62.794298 108.546816 
" clip-path="url(#pdf553d734b)" style="fill: #ff0000; fill-opacity: 0.5"/>
    <path d="M 69.704655 98.331352 
L 120.686792 92.287078 
L 121.823164 89.131344 
L 129.7125 91.972273 
L 122.706155 96.579184 
L 120.863391 93.776646 
L 69.881254 99.82092 
L 69.704655 98.331352 
" clip-path="url(#pdf553d734b)" style="fill: #ff0000; fill-opacity: 0.5"/>
    <path d="M 58.442998 105.157553 
L 123.389543 84.145436 
L 123.893249 80.829372 
L 132.183409 82.088636 
L 126.201901 87.965205 
L 123.851274 85.572602 
L 58.904729 106.58472 
L 58.442998 105.157553 
" clip-path="url(#pdf553d734b)" style="fill: #ff0000; fill-opacity: 0.5"/>
    <path d="M 39.05027 74.557527 
L 145.731963 95.380425 
L 147.778897 92.723347 
L 154.421591 97.840682 
L 146.342107 100.084436 
L 145.444605 96.852643 
L 38.762912 76.029745 
L 39.05027 74.557527 
" clip-path="url(#pdf553d734b)" style="fill: #ff0000; fill-opacity: 0.5"/>
    <path d="M 35.930659 68.80492 
L 92.112885 106.987016 
L 95.03977 105.348924 
L 99.135 112.666136 
L 90.824092 111.551993 
L 91.26975 108.22763 
L 35.087523 70.045534 
L 35.930659 68.80492 
" clip-path="url(#pdf553d734b)" style="fill: #ff0000; fill-opacity: 0.5"/>
    <path d="M 40.86232 162.289845 
L 139.076367 134.188138 
L 139.693231 130.891249 
L 147.935455 132.433409 
L 141.756392 138.101891 
L 139.488999 135.630266 
L 41.274952 163.731973 
L 40.86232 162.289845 
" clip-path="url(#pdf553d734b)" style="fill: #ff0000; fill-opacity: 0.5"/>
   </g>
   <g id="text_1">
    <!-- Left Wing Backs -->
    <g transform="translate(98.828437 46.128864) scale(0.12 -0.12)">
     <defs>
      <path id="DejaVuSans-4c" d="M 628 4666 
L 1259 4666 
L 1259 531 
L 3531 531 
L 3531 0 
L 628 0 
L 628 4666 
z
" transform="scale(0.015625)"/>
      <path id="DejaVuSans-65" d="M 3597 1894 
L 3597 1613 
L 953 1613 
Q 991 1019 1311 708 
Q 1631 397 2203 397 
Q 2534 397 2845 478 
Q 3156 559 3463 722 
L 3463 178 
Q 3153 47 2828 -22 
Q 2503 -91 2169 -91 
Q 1331 -91 842 396 
Q 353 884 353 1716 
Q 353 2575 817 3079 
Q 1281 3584 2069 3584 
Q 2775 3584 3186 3129 
Q 3597 2675 3597 1894 
z
M 3022 2063 
Q 3016 2534 2758 2815 
Q 2500 3097 2075 3097 
Q 1594 3097 1305 2825 
Q 1016 2553 972 2059 
L 3022 2063 
z
" transform="scale(0.015625)"/>
      <path id="DejaVuSans-66" d="M 2375 4863 
L 2375 4384 
L 1825 4384 
Q 1516 4384 1395 4259 
Q 1275 4134 1275 3809 
L 1275 3500 
L 2222 3500 
L 2222 3053 
L 1275 3053 
L 1275 0 
L 697 0 
L 697 3053 
L 147 3053 
L 147 3500 
L 697 3500 
L 697 3744 
Q 697 4328 969 4595 
Q 1241 4863 1831 4863 
L 2375 4863 
z
" transform="scale(0.015625)"/>
      <path id="DejaVuSans-74" d="M 1172 4494 
L 1172 3500 
L 2356 3500 
L 2356 3053 
L 1172 3053 
L 1172 1153 
Q 1172 725 1289 603 
Q 1406 481 1766 481 
L 2356 481 
L 2356 0 
L 1766 0 
Q 1100 0 847 248 
Q 594 497 594 1153 
L 594 3053 
L 172 3053 
L 172 3500 
L 594 3500 
L 594 4494 
L 1172 4494 
z
" transform="scale(0.015625)"/>
      <path id="DejaVuSans-20" transform="scale(0.015625)"/>
      <path id="DejaVuSans-57" d="M 213 4666 
L 850 4666 
L 1831 722 
L 2809 4666 
L 3519 4666 
L 4500 722 
L 5478 4666 
L 6119 4666 
L 4947 0 
L 4153 0 
L 3169 4050 
L 2175 0 
L 1381 0 
L 213 4666 
z
" transform="scale(0.015625)"/>
      <path id="DejaVuSans-69" d="M 603 3500 
L 1178 3500 
L 1178 0 
L 603 0 
L 603 3500 
z
M 603 4863 
L 1178 4863 
L 1178 4134 
L 603 4134 
L 603 4863 
z
" transform="scale(0.015625)"/>
      <path id="DejaVuSans-6e" d="M 3513 2113 
L 3513 0 
L 2938 0 
L 2938 2094 
Q 2938 2591 2744 2837 
Q 2550 3084 2163 3084 
Q 1697 3084 1428 2787 
Q 1159 2491 1159 1978 
L 1159 0 
L 581 0 
L 581 3500 
L 1159 3500 
L 1159 2956 
Q 1366 3272 1645 3428 
Q 1925 3584 2291 3584 
Q 2894 3584 3203 3211 
Q 3513 2838 3513 2113 
z
" transform="scale(0.015625)"/>
      <path id="DejaVuSans-67" d="M 2906 1791 
Q 2906 2416 2648 2759 
Q 2391 3103 1925 3103 
Q 1463 3103 1205 2759 
Q 947 2416 947 1791 
Q 947 1169 1205 825 
Q 1463 481 1925 481 
Q 2391 481 2648 825 
Q 2906 1169 2906 1791 
z
M 3481 434 
Q 3481 -459 3084 -895 
Q 2688 -1331 1869 -1331 
Q 1566 -1331 1297 -1286 
Q 1028 -1241 775 -1147 
L 775 -588 
Q 1028 -725 1275 -790 
Q 1522 -856 1778 -856 
Q 2344 -856 2625 -561 
Q 2906 -266 2906 331 
L 2906 616 
Q 2728 306 2450 153 
Q 2172 0 1784 0 
Q 1141 0 747 490 
Q 353 981 353 1791 
Q 353 2603 747 3093 
Q 1141 3584 1784 3584 
Q 2172 3584 2450 3431 
Q 2728 3278 2906 2969 
L 2906 3500 
L 3481 3500 
L 3481 434 
z
" transform="scale(0.015625)"/>
      <path id="DejaVuSans-42" d="M 1259 2228 
L 1259 519 
L 2272 519 
Q 2781 519 3026 730 
Q 3272 941 3272 1375 
Q 3272 1813 3026 2020 
Q 2781 2228 2272 2228 
L 1259 2228 
z
M 1259 4147 
L 1259 2741 
L 2194 2741 
Q 2656 2741 2882 2914 
Q 3109 3088 3109 3444 
Q 3109 3797 2882 3972 
Q 2656 4147 2194 4147 
L 1259 4147 
z
M 628 4666 
L 2241 4666 
Q 2963 4666 3353 4366 
Q 3744 4066 3744 3513 
Q 3744 3084 3544 2831 
Q 3344 2578 2956 2516 
Q 3422 2416 3680 2098 
Q 3938 1781 3938 1306 
Q 3938 681 3513 340 
Q 3088 0 2303 0 
L 628 0 
L 628 4666 
z
" transform="scale(0.015625)"/>
      <path id="DejaVuSans-61" d="M 2194 1759 
Q 1497 1759 1228 1600 
Q 959 1441 959 1056 
Q 959 750 1161 570 
Q 1363 391 1709 391 
Q 2188 391 2477 730 
Q 2766 1069 2766 1631 
L 2766 1759 
L 2194 1759 
z
M 3341 1997 
L 3341 0 
L 2766 0 
L 2766 531 
Q 2569 213 2275 61 
Q 1981 -91 1556 -91 
Q 1019 -91 701 211 
Q 384 513 384 1019 
Q 384 1609 779 1909 
Q 1175 2209 1959 2209 
L 2766 2209 
L 2766 2266 
Q 2766 2663 2505 2880 
Q 2244 3097 1772 3097 
Q 1472 3097 1187 3025 
Q 903 2953 641 2809 
L 641 3341 
Q 956 3463 1253 3523 
Q 1550 3584 1831 3584 
Q 2591 3584 2966 3190 
Q 3341 2797 3341 1997 
z
" transform="scale(0.015625)"/>
      <path id="DejaVuSans-63" d="M 3122 3366 
L 3122 2828 
Q 2878 2963 2633 3030 
Q 2388 3097 2138 3097 
Q 1578 3097 1268 2742 
Q 959 2388 959 1747 
Q 959 1106 1268 751 
Q 1578 397 2138 397 
Q 2388 397 2633 464 
Q 2878 531 3122 666 
L 3122 134 
Q 2881 22 2623 -34 
Q 2366 -91 2075 -91 
Q 1284 -91 818 406 
Q 353 903 353 1747 
Q 353 2603 823 3093 
Q 1294 3584 2113 3584 
Q 2378 3584 2631 3529 
Q 2884 3475 3122 3366 
z
" transform="scale(0.015625)"/>
      <path id="DejaVuSans-6b" d="M 581 4863 
L 1159 4863 
L 1159 1991 
L 2875 3500 
L 3609 3500 
L 1753 1863 
L 3688 0 
L 2938 0 
L 1159 1709 
L 1159 0 
L 581 0 
L 581 4863 
z
" transform="scale(0.015625)"/>
      <path id="DejaVuSans-73" d="M 2834 3397 
L 2834 2853 
Q 2591 2978 2328 3040 
Q 2066 3103 1784 3103 
Q 1356 3103 1142 2972 
Q 928 2841 928 2578 
Q 928 2378 1081 2264 
Q 1234 2150 1697 2047 
L 1894 2003 
Q 2506 1872 2764 1633 
Q 3022 1394 3022 966 
Q 3022 478 2636 193 
Q 2250 -91 1575 -91 
Q 1294 -91 989 -36 
Q 684 19 347 128 
L 347 722 
Q 666 556 975 473 
Q 1284 391 1588 391 
Q 1994 391 2212 530 
Q 2431 669 2431 922 
Q 2431 1156 2273 1281 
Q 2116 1406 1581 1522 
L 1381 1569 
Q 847 1681 609 1914 
Q 372 2147 372 2553 
Q 372 3047 722 3315 
Q 1072 3584 1716 3584 
Q 2034 3584 2315 3537 
Q 2597 3491 2834 3397 
z
" transform="scale(0.015625)"/>
     </defs>
     <use xlink:href="#DejaVuSans-4c"/>
     <use xlink:href="#DejaVuSans-65" x="53.962891"/>
     <use xlink:href="#DejaVuSans-66" x="115.486328"/>
     <use xlink:href="#DejaVuSans-74" x="148.941406"/>
     <use xlink:href="#DejaVuSans-20" x="188.150391"/>
     <use xlink:href="#DejaVuSans-57" x="219.9375"/>
     <use xlink:href="#DejaVuSans-69" x="316.564453"/>
     <use xlink:href="#DejaVuSans-6e" x="344.347656"/>
     <use xlink:href="#DejaVuSans-67" x="407.726562"/>
     <use xlink:href="#DejaVuSans-20" x="471.203125"/>
     <use xlink:href="#DejaVuSans-42" x="502.990234"/>
     <use xlink:href="#DejaVuSans-61" x="571.59375"/>
     <use xlink:href="#DejaVuSans-63" x="632.873047"/>
     <use xlink:href="#DejaVuSans-6b" x="687.853516"/>
     <use xlink:href="#DejaVuSans-73" x="745.763672"/>
    </g>
   </g>
  </g>
  <g id="axes_2">
   <g id="patch_13">
    <path d="M 293.4 262.156136 
L 565.2 262.156136 
L 565.2 52.128864 
L 293.4 52.128864 
z
" style="fill: #ffffff"/>
   </g>
   <g id="line2d_8">
    <path d="M 552.845455 249.801591 
L 305.754545 249.801591 
L 305.754545 64.483409 
L 552.845455 64.483409 
L 552.845455 289 
M 305.754545 289 
L 305.754545 249.801591 
" clip-path="url(#p4264b16003)" style="fill: none; stroke: #b0b0b0; stroke-width: 2; stroke-linecap: square"/>
   </g>
   <g id="line2d_9">
    <path d="M 497.25 64.483409 
L 497.25 120.078864 
L 361.35 120.078864 
L 361.35 64.483409 
" clip-path="url(#p4264b16003)" style="fill: none; stroke: #b0b0b0; stroke-width: 2; stroke-linecap: square"/>
   </g>
   <g id="line2d_10">
    <path clip-path="url(#p4264b16003)" style="fill: none; stroke: #b0b0b0; stroke-width: 2; stroke-linecap: square"/>
   </g>
   <g id="line2d_11">
    <path d="M 460.186364 64.483409 
L 460.186364 83.015227 
L 398.413636 83.015227 
L 398.413636 64.483409 
" clip-path="url(#p4264b16003)" style="fill: none; stroke: #b0b0b0; stroke-width: 2; stroke-linecap: square"/>
   </g>
   <g id="line2d_12">
    <path clip-path="url(#p4264b16003)" style="fill: none; stroke: #b0b0b0; stroke-width: 2; stroke-linecap: square"/>
   </g>
   <g id="patch_14">
    <path d="M 429.3 280.687955 
C 437.491159 280.687955 445.347933 277.433572 451.139957 271.641548 
C 456.931982 265.849524 460.186364 257.99275 460.186364 249.801591 
C 460.186364 241.610432 456.931982 233.753658 451.139957 227.961634 
C 445.347933 222.169609 437.491159 218.915227 429.3 218.915227 
C 421.108841 218.915227 413.252067 222.169609 407.460043 227.961634 
C 401.668018 233.753658 398.413636 241.610432 398.413636 249.801591 
C 398.413636 257.99275 401.668018 265.849524 407.460043 271.641548 
C 413.252067 277.433572 421.108841 280.687955 429.3 280.687955 
L 429.3 280.687955 
z
" clip-path="url(#p4264b16003)" style="fill: none; stroke: #b0b0b0; stroke-width: 2; stroke-linejoin: miter"/>
   </g>
   <g id="patch_15">
    <path d="M 453.983158 379.489792 
C 451.10534 375.663855 447.377004 372.558901 443.093487 370.420884 
C 438.809971 368.282867 434.087445 367.169773 429.3 367.169773 
C 424.512555 367.169773 419.790029 368.282867 415.506513 370.420884 
C 411.222996 372.558901 407.49466 375.663855 404.616842 379.489792 
" clip-path="url(#p4264b16003)" style="fill: none; stroke: #b0b0b0; stroke-width: 2; stroke-linejoin: miter"/>
   </g>
   <g id="patch_16">
    <path d="M 404.616842 120.11339 
C 407.49466 123.939327 411.222996 127.044281 415.506513 129.182298 
C 419.790029 131.320314 424.512555 132.433409 429.3 132.433409 
C 434.087445 132.433409 438.809971 131.320314 443.093487 129.182298 
C 447.377004 127.044281 451.10534 123.939327 453.983158 120.11339 
" clip-path="url(#p4264b16003)" style="fill: none; stroke: #b0b0b0; stroke-width: 2; stroke-linejoin: miter"/>
   </g>
   <g id="patch_17">
    <path d="M 309.130425 435.119773 
C 309.130425 434.224777 308.77451 433.365523 308.141653 432.732665 
C 307.508795 432.099808 306.649541 431.743893 305.754545 431.743893 
" clip-path="url(#p4264b16003)" style="fill: none; stroke: #b0b0b0; stroke-width: 2; stroke-linejoin: miter"/>
   </g>
   <g id="patch_18">
    <path d="M 305.754545 67.859289 
C 306.649541 67.859289 307.508795 67.503374 308.141653 66.870516 
C 308.77451 66.237659 309.130425 65.378405 309.130425 64.483409 
" clip-path="url(#p4264b16003)" style="fill: none; stroke: #b0b0b0; stroke-width: 2; stroke-linejoin: miter"/>
   </g>
   <g id="patch_19">
    <path d="M 549.469575 64.483409 
C 549.469575 65.378405 549.82549 66.237659 550.458347 66.870516 
C 551.091205 67.503374 551.950459 67.859289 552.845455 67.859289 
" clip-path="url(#p4264b16003)" style="fill: none; stroke: #b0b0b0; stroke-width: 2; stroke-linejoin: miter"/>
   </g>
   <g id="patch_20">
    <path d="M 552.845455 431.743893 
C 551.950459 431.743893 551.091205 432.099808 550.458347 432.732665 
C 549.82549 433.365523 549.469575 434.224777 549.469575 435.119773 
" clip-path="url(#p4264b16003)" style="fill: none; stroke: #b0b0b0; stroke-width: 2; stroke-linejoin: miter"/>
   </g>
   <g id="patch_21">
    <path d="M 429.3 250.542864 
C 429.496588 250.542864 429.68515 250.464758 429.824159 250.32575 
C 429.963168 250.186741 430.041273 249.998179 430.041273 249.801591 
C 430.041273 249.605003 429.963168 249.416441 429.824159 249.277432 
C 429.68515 249.138423 429.496588 249.060318 429.3 249.060318 
C 429.103412 249.060318 428.91485 249.138423 428.775841 249.277432 
C 428.636832 249.416441 428.558727 249.605003 428.558727 249.801591 
C 428.558727 249.998179 428.636832 250.186741 428.775841 250.32575 
C 428.91485 250.464758 429.103412 250.542864 429.3 250.542864 
z
" clip-path="url(#p4264b16003)" style="fill: #b0b0b0; stroke: #b0b0b0; stroke-linejoin: miter"/>
   </g>
   <g id="patch_22">
    <path d="M 429.3 398.797409 
C 429.496588 398.797409 429.68515 398.719304 429.824159 398.580295 
C 429.963168 398.441287 430.041273 398.252724 430.041273 398.056136 
C 430.041273 397.859549 429.963168 397.670986 429.824159 397.531977 
C 429.68515 397.392969 429.496588 397.314864 429.3 397.314864 
C 429.103412 397.314864 428.91485 397.392969 428.775841 397.531977 
C 428.636832 397.670986 428.558727 397.859549 428.558727 398.056136 
C 428.558727 398.252724 428.636832 398.441287 428.775841 398.580295 
C 428.91485 398.719304 429.103412 398.797409 429.3 398.797409 
z
" clip-path="url(#p4264b16003)" style="fill: #b0b0b0; stroke: #b0b0b0; stroke-linejoin: miter"/>
   </g>
   <g id="patch_23">
    <path d="M 429.3 102.288318 
C 429.496588 102.288318 429.68515 102.210213 429.824159 102.071204 
C 429.963168 101.932196 430.041273 101.743633 430.041273 101.547045 
C 430.041273 101.350458 429.963168 101.161895 429.824159 101.022886 
C 429.68515 100.883878 429.496588 100.805773 429.3 100.805773 
C 429.103412 100.805773 428.91485 100.883878 428.775841 101.022886 
C 428.636832 101.161895 428.558727 101.350458 428.558727 101.547045 
C 428.558727 101.743633 428.636832 101.932196 428.775841 102.071204 
C 428.91485 102.210213 429.103412 102.288318 429.3 102.288318 
z
" clip-path="url(#p4264b16003)" style="fill: #b0b0b0; stroke: #b0b0b0; stroke-linejoin: miter"/>
   </g>
   <g id="line2d_13">
    <path d="M 416.945455 64.483409 
L 441.654545 64.483409 
" clip-path="url(#p4264b16003)" style="fill: none; stroke: #b0b0b0; stroke-width: 4; stroke-linecap: square"/>
   </g>
   <g id="line2d_14">
    <path clip-path="url(#p4264b16003)" style="fill: none; stroke: #b0b0b0; stroke-width: 4; stroke-linecap: square"/>
   </g>
   <g id="matplotlib.axis_3">
    <g id="xtick_10"/>
    <g id="xtick_11"/>
    <g id="xtick_12"/>
    <g id="xtick_13"/>
    <g id="xtick_14"/>
    <g id="xtick_15"/>
    <g id="xtick_16"/>
    <g id="xtick_17"/>
    <g id="xtick_18"/>
   </g>
   <g id="matplotlib.axis_4">
    <g id="ytick_8"/>
    <g id="ytick_9"/>
    <g id="ytick_10"/>
    <g id="ytick_11"/>
    <g id="ytick_12"/>
    <g id="ytick_13"/>
    <g id="ytick_14"/>
   </g>
   <g id="Quiver_2">
    <path d="M 504.738973 77.892933 
L 429.063709 85.626171 
L 427.876461 88.763119 
L 420.034091 85.795 
L 427.114008 81.301975 
L 428.911218 84.133942 
L 504.586482 76.400704 
L 504.738973 77.892933 
" clip-path="url(#p4264b16003)" style="fill: #0000ff; fill-opacity: 0.5"/>
    <path d="M 481.027224 108.011014 
L 463.155985 121.690234 
L 463.788307 124.984194 
L 455.553409 126.565 
L 459.229703 119.028597 
L 462.244264 120.499115 
L 480.115503 106.819895 
L 481.027224 108.011014 
" clip-path="url(#p4264b16003)" style="fill: #0000ff; fill-opacity: 0.5"/>
    <path d="M 484.917917 84.923529 
L 452.22208 101.023751 
L 452.201691 104.377791 
L 443.816591 104.326818 
L 448.88843 97.649322 
L 451.559428 99.678058 
L 484.255265 83.577835 
L 484.917917 84.923529 
" clip-path="url(#p4264b16003)" style="fill: #0000ff; fill-opacity: 0.5"/>
    <path d="M 506.81731 94.266554 
L 453.735274 93.738374 
L 452.205499 96.723301 
L 444.743182 92.898864 
L 452.280122 89.223672 
L 453.750199 92.238449 
L 506.832235 92.766628 
L 506.81731 94.266554 
" clip-path="url(#p4264b16003)" style="fill: #0000ff; fill-opacity: 0.5"/>
    <path d="M 515.36971 97.656951 
L 433.169253 86.23248 
L 431.270554 88.997429 
L 424.358182 84.250682 
L 432.303003 81.568832 
L 433.375743 84.746761 
L 515.576199 96.171231 
L 515.36971 97.656951 
" clip-path="url(#p4264b16003)" style="fill: #0000ff; fill-opacity: 0.5"/>
    <path d="M 552.819608 89.324327 
L 454.329716 85.928124 
L 452.727221 88.874649 
L 445.360909 84.868409 
L 452.985688 81.379104 
L 454.38141 84.429015 
L 552.871301 87.825218 
L 552.819608 89.324327 
" clip-path="url(#p4264b16003)" style="fill: #0000ff; fill-opacity: 0.5"/>
    <path d="M 508.488973 102.581709 
L 435.349711 83.537901 
L 433.142183 86.063138 
L 426.829091 80.544318 
L 435.032002 78.805137 
L 435.727674 82.086301 
L 508.866936 101.130109 
L 508.488973 102.581709 
" clip-path="url(#p4264b16003)" style="fill: #0000ff; fill-opacity: 0.5"/>
    <path d="M 524.66996 95.498874 
L 429.853716 86.750946 
L 428.084444 89.600451 
L 420.960682 85.177273 
L 428.773482 82.13217 
L 429.991523 85.25729 
L 524.807767 94.005217 
L 524.66996 95.498874 
" clip-path="url(#p4264b16003)" style="fill: #0000ff; fill-opacity: 0.5"/>
    <path d="M 474.840298 74.486635 
L 452.184015 78.706924 
L 451.258754 81.93088 
L 443.198864 79.617727 
L 449.885319 74.557707 
L 451.909328 77.232289 
L 474.565611 73.012001 
L 474.840298 74.486635 
" clip-path="url(#p4264b16003)" style="fill: #0000ff; fill-opacity: 0.5"/>
    <path d="M 505.369389 107.205893 
L 440.464196 87.297998 
L 438.150421 89.726257 
L 432.079773 83.941818 
L 440.349713 82.555963 
L 440.904055 85.863939 
L 505.809247 105.771834 
L 505.369389 107.205893 
" clip-path="url(#p4264b16003)" style="fill: #0000ff; fill-opacity: 0.5"/>
    <path d="M 506.587193 90.247968 
L 454.082586 95.260971 
L 452.874512 98.389958 
L 445.052045 95.369773 
L 452.161673 90.92391 
L 453.940018 93.767762 
L 506.444625 88.754759 
L 506.587193 90.247968 
" clip-path="url(#p4264b16003)" style="fill: #0000ff; fill-opacity: 0.5"/>
    <path d="M 494.683839 234.282269 
L 463.501518 138.750978 
L 460.184153 138.255912 
L 461.421818 129.9625 
L 467.313949 135.928679 
L 464.927477 138.285532 
L 496.109798 233.816822 
L 494.683839 234.282269 
" clip-path="url(#p4264b16003)" style="fill: #0000ff; fill-opacity: 0.5"/>
    <path d="M 539.034335 121.104391 
L 435.516795 89.165094 
L 433.198991 91.589509 
L 427.137955 85.795 
L 435.410184 84.422876 
L 435.959033 87.731768 
L 539.476574 119.671064 
L 539.034335 121.104391 
" clip-path="url(#p4264b16003)" style="fill: #0000ff; fill-opacity: 0.5"/>
    <path d="M 522.158124 120.203051 
L 428.827236 106.386696 
L 426.904086 109.134694 
L 420.034091 104.326818 
L 428.002388 101.715548 
L 429.046897 104.902867 
L 522.377785 118.719222 
L 522.158124 120.203051 
" clip-path="url(#p4264b16003)" style="fill: #0000ff; fill-opacity: 0.5"/>
    <path d="M 508.854975 109.38923 
L 457.177551 100.161118 
L 455.173537 102.850715 
L 448.449545 97.840682 
L 456.491967 95.467508 
L 457.441237 98.684477 
L 509.118661 107.912588 
L 508.854975 109.38923 
" clip-path="url(#p4264b16003)" style="fill: #0000ff; fill-opacity: 0.5"/>
    <path d="M 370.092721 105.63624 
L 376.848737 126.122223 
L 380.167596 126.60717 
L 378.955227 134.904318 
L 373.04493 128.956135 
L 375.424204 126.592016 
L 368.668188 106.106033 
L 370.092721 105.63624 
" clip-path="url(#p4264b16003)" style="fill: #0000ff; fill-opacity: 0.5"/>
    <path d="M 492.667034 98.853452 
L 426.368909 74.471083 
L 423.925598 76.768959 
L 418.180909 70.660682 
L 426.514344 69.729897 
L 426.886658 73.063271 
L 493.184784 97.445639 
L 492.667034 98.853452 
" clip-path="url(#p4264b16003)" style="fill: #0000ff; fill-opacity: 0.5"/>
    <path d="M 496.357285 159.157581 
L 446.719849 97.596069 
L 443.442919 98.311418 
L 441.654545 90.119091 
L 449.281431 93.603789 
L 447.887552 96.654543 
L 497.524988 158.216055 
L 496.357285 159.157581 
" clip-path="url(#p4264b16003)" style="fill: #0000ff; fill-opacity: 0.5"/>
    <path d="M 516.647308 81.252212 
L 463.369306 99.899513 
L 462.94457 103.226613 
L 454.626818 102.164773 
L 460.466942 96.147676 
L 462.873781 98.483725 
L 516.151783 79.836424 
L 516.647308 81.252212 
" clip-path="url(#p4264b16003)" style="fill: #0000ff; fill-opacity: 0.5"/>
    <path d="M 529.082258 142.391167 
L 440.710129 105.404749 
L 438.168191 107.593025 
L 432.6975 101.238182 
L 441.06379 100.674535 
L 441.289248 104.021051 
L 529.661378 141.007469 
L 529.082258 142.391167 
" clip-path="url(#p4264b16003)" style="fill: #0000ff; fill-opacity: 0.5"/>
    <path d="M 496.663067 199.923734 
L 414.548781 96.702607 
L 411.26722 97.396404 
L 409.532727 89.1925 
L 417.136546 92.727248 
L 415.722647 95.768775 
L 497.836933 198.989903 
L 496.663067 199.923734 
" clip-path="url(#p4264b16003)" style="fill: #0000ff; fill-opacity: 0.5"/>
    <path d="M 534.00451 186.550149 
L 464.370845 155.049205 
L 461.76768 157.164277 
L 456.48 150.656364 
L 464.858939 150.330968 
L 464.989097 153.682544 
L 534.622762 185.183487 
L 534.00451 186.550149 
" clip-path="url(#p4264b16003)" style="fill: #0000ff; fill-opacity: 0.5"/>
    <path d="M 475.159399 97.818066 
L 450.487786 116.740954 
L 451.123342 120.034291 
L 442.89 121.623182 
L 446.558893 114.083174 
L 449.574896 115.550731 
L 474.24651 96.627843 
L 475.159399 97.818066 
" clip-path="url(#p4264b16003)" style="fill: #0000ff; fill-opacity: 0.5"/>
    <path d="M 472.100141 275.104901 
L 477.377595 106.812752 
L 474.426085 105.219459 
L 478.409318 97.840682 
L 481.9224 105.454535 
L 478.876858 106.859767 
L 473.599404 275.151917 
L 472.100141 275.104901 
" clip-path="url(#p4264b16003)" style="fill: #0000ff; fill-opacity: 0.5"/>
    <path d="M 392.499009 163.894609 
L 483.407953 115.031052 
L 483.30886 111.678414 
L 491.690455 111.430682 
L 486.859683 118.284597 
L 484.118117 116.352288 
L 393.209173 165.215846 
L 392.499009 163.894609 
" clip-path="url(#p4264b16003)" style="fill: #0000ff; fill-opacity: 0.5"/>
   </g>
   <g id="text_2">
    <!-- Right Wing Backs -->
    <g transform="translate(376.918125 46.128864) scale(0.12 -0.12)">
     <defs>
      <path id="DejaVuSans-52" d="M 2841 2188 
Q 3044 2119 3236 1894 
Q 3428 1669 3622 1275 
L 4263 0 
L 3584 0 
L 2988 1197 
Q 2756 1666 2539 1819 
Q 2322 1972 1947 1972 
L 1259 1972 
L 1259 0 
L 628 0 
L 628 4666 
L 2053 4666 
Q 2853 4666 3247 4331 
Q 3641 3997 3641 3322 
Q 3641 2881 3436 2590 
Q 3231 2300 2841 2188 
z
M 1259 4147 
L 1259 2491 
L 2053 2491 
Q 2509 2491 2742 2702 
Q 2975 2913 2975 3322 
Q 2975 3731 2742 3939 
Q 2509 4147 2053 4147 
L 1259 4147 
z
" transform="scale(0.015625)"/>
      <path id="DejaVuSans-68" d="M 3513 2113 
L 3513 0 
L 2938 0 
L 2938 2094 
Q 2938 2591 2744 2837 
Q 2550 3084 2163 3084 
Q 1697 3084 1428 2787 
Q 1159 2491 1159 1978 
L 1159 0 
L 581 0 
L 581 4863 
L 1159 4863 
L 1159 2956 
Q 1366 3272 1645 3428 
Q 1925 3584 2291 3584 
Q 2894 3584 3203 3211 
Q 3513 2838 3513 2113 
z
" transform="scale(0.015625)"/>
     </defs>
     <use xlink:href="#DejaVuSans-52"/>
     <use xlink:href="#DejaVuSans-69" x="69.482422"/>
     <use xlink:href="#DejaVuSans-67" x="97.265625"/>
     <use xlink:href="#DejaVuSans-68" x="160.742188"/>
     <use xlink:href="#DejaVuSans-74" x="224.121094"/>
     <use xlink:href="#DejaVuSans-20" x="263.330078"/>
     <use xlink:href="#DejaVuSans-57" x="295.117188"/>
     <use xlink:href="#DejaVuSans-69" x="391.744141"/>
     <use xlink:href="#DejaVuSans-6e" x="419.527344"/>
     <use xlink:href="#DejaVuSans-67" x="482.90625"/>
     <use xlink:href="#DejaVuSans-20" x="546.382812"/>
     <use xlink:href="#DejaVuSans-42" x="578.169922"/>
     <use xlink:href="#DejaVuSans-61" x="646.773438"/>
     <use xlink:href="#DejaVuSans-63" x="708.052734"/>
     <use xlink:href="#DejaVuSans-6b" x="763.033203"/>
     <use xlink:href="#DejaVuSans-73" x="820.943359"/>
    </g>
   </g>
  </g>
  <g id="text_3">
   <!-- Goal Assists from Left and Right Wing Backs -->
   <g transform="translate(111.00875 17.9175) scale(0.16 -0.16)">
    <defs>
     <path id="DejaVuSans-47" d="M 3809 666 
L 3809 1919 
L 2778 1919 
L 2778 2438 
L 4434 2438 
L 4434 434 
Q 4069 175 3628 42 
Q 3188 -91 2688 -91 
Q 1594 -91 976 548 
Q 359 1188 359 2328 
Q 359 3472 976 4111 
Q 1594 4750 2688 4750 
Q 3144 4750 3555 4637 
Q 3966 4525 4313 4306 
L 4313 3634 
Q 3963 3931 3569 4081 
Q 3175 4231 2741 4231 
Q 1884 4231 1454 3753 
Q 1025 3275 1025 2328 
Q 1025 1384 1454 906 
Q 1884 428 2741 428 
Q 3075 428 3337 486 
Q 3600 544 3809 666 
z
" transform="scale(0.015625)"/>
     <path id="DejaVuSans-6f" d="M 1959 3097 
Q 1497 3097 1228 2736 
Q 959 2375 959 1747 
Q 959 1119 1226 758 
Q 1494 397 1959 397 
Q 2419 397 2687 759 
Q 2956 1122 2956 1747 
Q 2956 2369 2687 2733 
Q 2419 3097 1959 3097 
z
M 1959 3584 
Q 2709 3584 3137 3096 
Q 3566 2609 3566 1747 
Q 3566 888 3137 398 
Q 2709 -91 1959 -91 
Q 1206 -91 779 398 
Q 353 888 353 1747 
Q 353 2609 779 3096 
Q 1206 3584 1959 3584 
z
" transform="scale(0.015625)"/>
     <path id="DejaVuSans-6c" d="M 603 4863 
L 1178 4863 
L 1178 0 
L 603 0 
L 603 4863 
z
" transform="scale(0.015625)"/>
     <path id="DejaVuSans-41" d="M 2188 4044 
L 1331 1722 
L 3047 1722 
L 2188 4044 
z
M 1831 4666 
L 2547 4666 
L 4325 0 
L 3669 0 
L 3244 1197 
L 1141 1197 
L 716 0 
L 50 0 
L 1831 4666 
z
" transform="scale(0.015625)"/>
     <path id="DejaVuSans-72" d="M 2631 2963 
Q 2534 3019 2420 3045 
Q 2306 3072 2169 3072 
Q 1681 3072 1420 2755 
Q 1159 2438 1159 1844 
L 1159 0 
L 581 0 
L 581 3500 
L 1159 3500 
L 1159 2956 
Q 1341 3275 1631 3429 
Q 1922 3584 2338 3584 
Q 2397 3584 2469 3576 
Q 2541 3569 2628 3553 
L 2631 2963 
z
" transform="scale(0.015625)"/>
     <path id="DejaVuSans-6d" d="M 3328 2828 
Q 3544 3216 3844 3400 
Q 4144 3584 4550 3584 
Q 5097 3584 5394 3201 
Q 5691 2819 5691 2113 
L 5691 0 
L 5113 0 
L 5113 2094 
Q 5113 2597 4934 2840 
Q 4756 3084 4391 3084 
Q 3944 3084 3684 2787 
Q 3425 2491 3425 1978 
L 3425 0 
L 2847 0 
L 2847 2094 
Q 2847 2600 2669 2842 
Q 2491 3084 2119 3084 
Q 1678 3084 1418 2786 
Q 1159 2488 1159 1978 
L 1159 0 
L 581 0 
L 581 3500 
L 1159 3500 
L 1159 2956 
Q 1356 3278 1631 3431 
Q 1906 3584 2284 3584 
Q 2666 3584 2933 3390 
Q 3200 3197 3328 2828 
z
" transform="scale(0.015625)"/>
     <path id="DejaVuSans-64" d="M 2906 2969 
L 2906 4863 
L 3481 4863 
L 3481 0 
L 2906 0 
L 2906 525 
Q 2725 213 2448 61 
Q 2172 -91 1784 -91 
Q 1150 -91 751 415 
Q 353 922 353 1747 
Q 353 2572 751 3078 
Q 1150 3584 1784 3584 
Q 2172 3584 2448 3432 
Q 2725 3281 2906 2969 
z
M 947 1747 
Q 947 1113 1208 752 
Q 1469 391 1925 391 
Q 2381 391 2643 752 
Q 2906 1113 2906 1747 
Q 2906 2381 2643 2742 
Q 2381 3103 1925 3103 
Q 1469 3103 1208 2742 
Q 947 2381 947 1747 
z
" transform="scale(0.015625)"/>
    </defs>
    <use xlink:href="#DejaVuSans-47"/>
    <use xlink:href="#DejaVuSans-6f" x="77.490234"/>
    <use xlink:href="#DejaVuSans-61" x="138.671875"/>
    <use xlink:href="#DejaVuSans-6c" x="199.951172"/>
    <use xlink:href="#DejaVuSans-20" x="227.734375"/>
    <use xlink:href="#DejaVuSans-41" x="259.521484"/>
    <use xlink:href="#DejaVuSans-73" x="327.929688"/>
    <use xlink:href="#DejaVuSans-73" x="380.029297"/>
    <use xlink:href="#DejaVuSans-69" x="432.128906"/>
    <use xlink:href="#DejaVuSans-73" x="459.912109"/>
    <use xlink:href="#DejaVuSans-74" x="512.011719"/>
    <use xlink:href="#DejaVuSans-73" x="551.220703"/>
    <use xlink:href="#DejaVuSans-20" x="603.320312"/>
    <use xlink:href="#DejaVuSans-66" x="635.107422"/>
    <use xlink:href="#DejaVuSans-72" x="670.3125"/>
    <use xlink:href="#DejaVuSans-6f" x="709.175781"/>
    <use xlink:href="#DejaVuSans-6d" x="770.357422"/>
    <use xlink:href="#DejaVuSans-20" x="867.769531"/>
    <use xlink:href="#DejaVuSans-4c" x="899.556641"/>
    <use xlink:href="#DejaVuSans-65" x="953.519531"/>
    <use xlink:href="#DejaVuSans-66" x="1015.042969"/>
    <use xlink:href="#DejaVuSans-74" x="1048.498047"/>
    <use xlink:href="#DejaVuSans-20" x="1087.707031"/>
    <use xlink:href="#DejaVuSans-61" x="1119.494141"/>
    <use xlink:href="#DejaVuSans-6e" x="1180.773438"/>
    <use xlink:href="#DejaVuSans-64" x="1244.152344"/>
    <use xlink:href="#DejaVuSans-20" x="1307.628906"/>
    <use xlink:href="#DejaVuSans-52" x="1339.416016"/>
    <use xlink:href="#DejaVuSans-69" x="1408.898438"/>
    <use xlink:href="#DejaVuSans-67" x="1436.681641"/>
    <use xlink:href="#DejaVuSans-68" x="1500.158203"/>
    <use xlink:href="#DejaVuSans-74" x="1563.537109"/>
    <use xlink:href="#DejaVuSans-20" x="1602.746094"/>
    <use xlink:href="#DejaVuSans-57" x="1634.533203"/>
    <use xlink:href="#DejaVuSans-69" x="1731.160156"/>
    <use xlink:href="#DejaVuSans-6e" x="1758.943359"/>
    <use xlink:href="#DejaVuSans-67" x="1822.322266"/>
    <use xlink:href="#DejaVuSans-20" x="1885.798828"/>
    <use xlink:href="#DejaVuSans-42" x="1917.585938"/>
    <use xlink:href="#DejaVuSans-61" x="1986.189453"/>
    <use xlink:href="#DejaVuSans-63" x="2047.46875"/>
    <use xlink:href="#DejaVuSans-6b" x="2102.449219"/>
    <use xlink:href="#DejaVuSans-73" x="2160.359375"/>
   </g>
  </g>
 </g>
 <defs>
  <clipPath id="pdf553d734b">
   <rect x="10.8" y="52.128864" width="271.8" height="210.027273"/>
  </clipPath>
  <clipPath id="p4264b16003">
   <rect x="293.4" y="52.128864" width="271.8" height="210.027273"/>
  </clipPath>
 </defs>
</svg>
